<?xml version="1.0" encoding="utf-8"?>
<!-- Generator: Adobe Illustrator 23.1.1, SVG Export Plug-In . SVG Version: 6.00 Build 0)  -->
<svg version="1.1" id="Ebene_1" xmlns="http://www.w3.org/2000/svg" xmlns:xlink="http://www.w3.org/1999/xlink" x="0px" y="0px"
	 viewBox="0 0 923 183" style="enable-background:new 0 0 923 183;" xml:space="preserve">
<style type="text/css">
	.st0{fill:#262626;}
</style>
<g>
	<g>
		<g>
			<path class="st0" d="M87.8,173.7H8.6V9.7h71.6c27.2,0,49,18.9,49,44.7c0,16.6-9.7,23.7-17.1,29.7c13.9,6.5,28.3,18.2,28.3,40.6
				C140.5,152.4,117.6,173.7,87.8,173.7z M53.3,70.5h21.5c5.5,0,10.8-6.1,10.8-11.9s-5-11.7-10.8-11.7H53.3V70.5z M80.2,105.7H53.3
				v31.1h26.9c8,0,14.4-7.4,14.4-15.5C94.8,112.2,88.2,105.7,80.2,105.7z"/>
			<path class="st0" d="M228.3,177.3c-48.7,0-87.9-37-87.9-85.5s39.3-85.7,87.9-85.7s87.9,37,87.9,85.5S277.2,177.3,228.3,177.3z
				 M228.3,50.8c-22.5,0-41.1,18.4-41.1,41.1s18.4,41.1,41.1,41.1s41.1-18.4,41.1-41.1S250.8,50.8,228.3,50.8z"/>
			<path class="st0" d="M428.5,118.5l27.9,54.9h-50.1l-20.3-44.7h-20.8v44.7h-44.7V9.7h74.5c34.5,0,62,25.4,62,59.6
				C456.8,91.4,444.2,107.8,428.5,118.5z M393.4,50.1h-28.3v39h28.3c10.1,0,16.6-11.2,16.6-19.3S403.5,50.1,393.4,50.1z"/>
			<path class="st0" d="M556,173.7l-49-83.2h-1.4l0.8,83.2h-44.7V9.7h44.7l49,81h1.4l-0.8-81h44.7v164.1H556V173.7z"/>
			<path class="st0" d="M706.8,149.2h-52l-7.6,24.4h-46.9l58-164h44.7L761,173.8h-46.9L706.8,149.2z M681.4,60.2h-0.8l-13.2,51.2
				h26.9L681.4,60.2z"/>
			<path class="st0" d="M910.7,173.7h-52.4l-53-81.8v81.8h-44.4V9.7h44.7v81.8l53-81.8H911l-58.8,81.8L910.7,173.7z"/>
		</g>
	</g>
</g>
</svg>
